<svg width="72.000000" height="72.000000" viewBox="0 0 72 72" fill="none" xmlns="http://www.w3.org/2000/svg" xmlns:xlink="http://www.w3.org/1999/xlink">
	<desc>
			Created with Pixso.
	</desc>
	<defs/>
	<circle id="Oval" cx="44.000000" cy="44.000000" r="28.000000" fill="#2C6269" fill-opacity="1.000000"/>
	<path id="Combined Shape" d="M49 0C46.4263 0 44.3333 2.09302 44.3333 4.66669C44.3333 5.53119 44.5695 6.34149 44.9806 7.03638L37.3696 14.6473C36.6748 14.2361 35.8645 14 35 14C33.5327 14 32.2217 14.6803 31.3656 15.7421L25.6653 14.1165C25.6663 14.0778 25.6667 14.0389 25.6667 13.9999C25.6667 11.4263 23.5737 9.33325 21 9.33325C18.4263 9.33325 16.3333 11.4263 16.3333 13.9999C16.3333 14.6786 16.4789 15.3239 16.7404 15.9062L9.46631 21.7061C8.75037 21.2588 7.90491 21 7 21C4.42627 21 2.33325 23.093 2.33325 25.6667C2.33325 28.2404 4.42627 30.3334 7 30.3334C9.57373 30.3334 11.6667 28.2404 11.6667 25.6667C11.6667 24.8465 11.4541 24.0751 11.0812 23.4047L18.1981 17.73C18.9789 18.3179 19.9493 18.6667 21 18.6667C22.7129 18.6667 24.2128 17.7396 25.0245 16.3608L30.3973 17.893C30.3552 18.1447 30.3333 18.4032 30.3333 18.6667C30.3333 21.2404 32.4263 23.3334 35 23.3334C37.5737 23.3334 39.6667 21.2404 39.6667 18.6667C39.6667 17.8022 39.4305 16.992 39.0194 16.2971L46.6304 8.6861C47.3252 9.09729 48.1355 9.33344 49 9.33344C51.5737 9.33344 53.6667 7.24042 53.6667 4.66669C53.6667 2.09302 51.5737 0 49 0ZM49 7C48.3795 7 47.8154 6.7569 47.3973 6.36121C47.3831 6.34515 47.3682 6.32941 47.3527 6.31403C47.3373 6.29865 47.3217 6.28375 47.3057 6.26941C46.9097 5.85095 46.6667 5.2865 46.6667 4.66669C46.6667 3.38098 47.712 2.33344 49 2.33344C50.288 2.33344 51.3333 3.3811 51.3333 4.66669C51.3333 5.95227 50.288 7 49 7ZM21 16.3333C20.2881 16.3333 19.6503 16.0132 19.2222 15.5097C19.2087 15.4908 19.1947 15.4721 19.1801 15.4537C19.165 15.4349 19.1495 15.4167 19.1337 15.399C18.8405 15.0088 18.6667 14.5242 18.6667 13.9999C18.6667 12.7142 19.712 11.6667 21 11.6667C22.288 11.6667 23.3333 12.7144 23.3333 13.9999C23.3333 15.2856 22.288 16.3333 21 16.3333ZM8.61304 23.9821C8.63611 24.0074 8.66016 24.0314 8.68506 24.0542C9.08655 24.4736 9.33325 25.0421 9.33325 25.6667C9.33325 26.9523 8.28796 28 7 28C5.71204 28 4.66675 26.9523 4.66675 25.6667C4.66675 24.381 5.71204 23.3334 7 23.3334C7.62561 23.3334 8.19385 23.5806 8.61304 23.9821ZM35 21C33.712 21 32.6667 19.9523 32.6667 18.6667C32.6667 17.381 33.712 16.3334 35 16.3334C36.288 16.3334 37.3333 17.3811 37.3333 18.6667C37.3333 19.9523 36.288 21 35 21ZM52.5 18.6667L45.5 18.6667C44.856 18.6667 44.3333 19.1895 44.3333 19.8334L44.3333 53.6667L39.6667 53.6667L39.6667 33.8335C39.6667 33.1894 39.144 32.6668 38.5 32.6668L31.5 32.6668C30.856 32.6668 30.3333 33.1895 30.3333 33.8335L30.3333 53.6667L25.6667 53.6667L25.6667 29.1667C25.6667 28.5227 25.144 28 24.5 28L17.5 28C16.856 28 16.3333 28.5227 16.3333 29.1667L16.3333 53.6667L11.6667 53.6667L11.6667 40.8334C11.6667 40.1894 11.144 39.6668 10.5 39.6668L3.5 39.6668C2.85596 39.6668 2.33325 40.1895 2.33325 40.8335L2.33325 53.6667L1.16675 53.6667C0.522705 53.6667 0 54.1893 0 54.8333C0 55.4773 0.522705 56 1.16675 56L3.48877 56L3.5 56.0001L10.5 56.0001L10.5112 56L17.4835 56C17.489 56.0001 17.4945 56.0001 17.5 56.0001L24.5 56.0001L24.5165 56L31.48 56C31.4867 56.0001 31.4933 56.0002 31.5 56.0002L38.5 56.0002C38.5067 56.0002 38.5133 56.0001 38.52 56L45.4819 56C45.4879 56.0001 45.494 56.0002 45.5 56.0002L52.5 56.0002L52.5181 56L54.8334 56C55.4774 56 56.0001 55.4773 56.0001 54.8333C56 54.1893 55.4773 53.6667 54.8333 53.6667L53.6667 53.6667L53.6667 19.8334C53.6667 19.1893 53.144 18.6667 52.5 18.6667ZM51.3333 53.6667L46.6666 53.6667L46.6666 21.0001L51.3333 21.0001L51.3333 53.6667ZM23.3333 53.6667L18.6666 53.6667L18.6666 30.3333L23.3333 30.3333L23.3333 53.6667ZM32.6666 53.6667L32.6666 35.0001L37.3333 35.0001L37.3333 53.6667L32.6666 53.6667ZM9.33337 53.6668L4.66675 53.6668L4.66675 42.0001L9.33337 42.0001L9.33337 53.6668Z" clip-rule="evenodd" fill="#79C8C7" fill-opacity="1.000000" fill-rule="evenodd"/>
</svg>
