<svg width="72.000000" height="72.000000" viewBox="0 0 72 72" fill="none" xmlns="http://www.w3.org/2000/svg" xmlns:xlink="http://www.w3.org/1999/xlink">
	<desc>
			Created with Pixso.
	</desc>
	<defs/>
	<circle id="Oval Copy" cx="44.000000" cy="44.000000" r="28.000000" fill="#2C6269" fill-opacity="1.000000"/>
	<path id="Combined Shape" d="M33.9062 53.8125C33.9062 55.0186 32.9248 56 31.7188 56L24.2812 56C23.0752 56 22.0938 55.0186 22.0938 53.8125L22.0938 50.5471C20.0356 50.0092 18.0717 49.1948 16.2354 48.1177L13.9243 50.4287C13.0712 51.2815 11.6835 51.2815 10.8307 50.4287L5.57129 45.1693C4.71851 44.3165 4.71851 42.9288 5.57129 42.076L7.88232 39.7646C6.80518 37.9283 5.99084 35.9643 5.45288 33.9062L2.1875 33.9062C0.981445 33.9062 0 32.9249 0 31.7188L0 24.2812C0 23.0751 0.981445 22.0938 2.1875 22.0938L5.44568 22.0938C5.98193 20.0323 6.79541 18.0648 7.87244 16.2251L5.57129 13.924C4.71851 13.0712 4.71851 11.6835 5.57129 10.8307L10.8307 5.57129C11.6835 4.71851 13.0712 4.71851 13.9243 5.57129L16.2174 7.86475C18.0588 6.78253 20.0288 5.96478 22.0938 5.42517L22.0938 2.1875C22.0938 0.981384 23.0752 0 24.2812 0L31.7188 0C32.9248 0 33.9062 0.981384 33.9062 2.1875L33.9062 5.41791C35.9741 5.95581 37.948 6.77271 39.7925 7.85449L42.076 5.57129C42.9288 4.71851 44.3165 4.71851 45.1693 5.57129L50.4287 10.8307C51.2815 11.6835 51.2815 13.0712 50.4287 13.9244L48.1455 16.2076C49.2273 18.052 50.0442 20.0259 50.582 22.0938L53.8125 22.0938C55.0186 22.0938 56 23.0751 56 24.2812L56 31.7188C56 32.9249 55.0186 33.9062 53.8125 33.9062L50.5748 33.9062C50.0352 35.9711 49.217 37.9412 48.1353 39.7826L50.4282 42.076C51.281 42.9288 51.281 44.3165 50.4282 45.1693L45.1693 50.4287C44.3165 51.2815 42.9288 51.2815 42.0757 50.4287L39.7749 48.1276C37.9348 49.2047 35.9673 50.0181 33.9062 50.5543L33.9062 53.8125ZM16.6597 45.8127C16.4785 45.6974 16.2747 45.641 16.0713 45.641C15.7888 45.641 15.509 45.7504 15.2976 45.9614L12.3773 48.8821L7.11841 43.6227L10.0386 40.7025C10.4017 40.3397 10.4633 39.7732 10.1873 39.3404C8.85889 37.2593 7.91479 34.9838 7.38196 32.5762C7.27087 32.0755 6.8269 31.7188 6.31384 31.7188L2.1875 31.7188L2.1875 24.2812L6.30786 24.2812C6.82141 24.2812 7.26575 23.9241 7.37598 23.4225C7.90662 21.012 8.84912 18.7326 10.177 16.6481C10.4526 16.2157 10.3906 15.6496 10.0278 15.2873L7.11841 12.3773L12.3773 7.11835L15.2809 10.0215C15.6436 10.3846 16.2109 10.4462 16.6433 10.1693C18.7283 8.83588 21.0098 7.88867 23.4242 7.35419C23.9249 7.2431 24.2812 6.79919 24.2812 6.28607L24.2812 2.1875L31.7188 2.1875L31.7188 6.28009C31.7188 6.79364 32.0759 7.23798 32.5775 7.34821C34.9949 7.88055 37.2798 8.82605 39.3682 10.1595C39.801 10.4355 40.3674 10.3735 40.7302 10.0108L43.6227 7.11835L48.8816 12.3773L45.9893 15.2698C45.6265 15.6329 45.5645 16.199 45.8406 16.6318C47.174 18.7202 48.1199 21.0051 48.6519 23.4225C48.762 23.9241 49.2063 24.2812 49.72 24.2812L53.8125 24.2812L53.8125 31.7188L49.7139 31.7188C49.2012 31.7188 48.7568 32.0751 48.6462 32.5762C48.1118 34.9902 47.1641 37.2717 45.8307 39.3566C45.5538 39.7894 45.6154 40.3564 45.9785 40.7195L48.8816 43.6227L43.6227 48.8817L40.7131 45.9721C40.3503 45.6094 39.7843 45.5474 39.3519 45.823C37.2673 47.1509 34.988 48.0934 32.5775 48.624C32.0759 48.7343 31.7188 49.1786 31.7188 49.6921L31.7188 53.8125L24.2812 53.8125L24.2812 49.6862C24.2812 49.173 23.9249 48.7291 23.4238 48.618C21.0166 48.0853 18.7407 47.1415 16.6597 45.8127ZM16.7083 39.2917C19.8217 42.4046 23.9109 43.9615 28 43.9615C32.0891 43.9615 36.1783 42.4046 39.2917 39.2917C44.1597 34.4241 45.3645 27.0182 42.29 20.8641C42.02 20.3237 41.363 20.1041 40.823 20.3741C40.2825 20.6441 40.0632 21.3012 40.3333 21.8417C42.9866 27.1528 41.9462 33.5439 37.7451 37.7451C35.0581 40.432 31.5295 41.7753 28 41.7748C24.4714 41.7744 20.9419 40.4312 18.2554 37.7451C12.8818 32.3716 12.8818 23.6284 18.2554 18.2554C22.6025 13.9077 29.38 12.9691 34.736 15.9726C35.2627 16.2682 35.9292 16.0807 36.2249 15.5535C36.5201 15.0267 36.3325 14.3602 35.8058 14.0649C32.8296 12.3961 29.3181 11.7219 25.9167 12.1671C22.4039 12.6268 19.2197 14.1974 16.7083 16.7083C10.4821 22.9346 10.4821 33.0654 16.7083 39.2917ZM38.7572 18.8138C38.4684 18.8138 38.1873 18.6976 37.9827 18.4929C37.7793 18.2896 37.6635 18.0084 37.6635 17.72C37.6635 17.4321 37.7793 17.1501 37.9827 16.9467C38.186 16.7429 38.4684 16.6263 38.7572 16.6263C39.0447 16.6263 39.3267 16.7429 39.5305 16.9467C39.7339 17.1501 39.851 17.4321 39.851 17.72C39.851 18.0084 39.7339 18.2896 39.5305 18.4929C39.3259 18.6976 39.0447 18.8138 38.7572 18.8138ZM25.683 35.7371C25.8881 35.9421 26.1663 36.0575 26.4563 36.0575C26.7465 36.0575 27.0245 35.9421 27.2301 35.7371L37.234 25.7331C37.6609 25.3058 37.6609 24.6133 37.234 24.1865L33.3107 20.2631C32.8834 19.8358 32.1908 19.8358 31.764 20.2631L26.4563 25.5703L24.2363 23.3499C24.0312 23.1448 23.7527 23.0299 23.4626 23.0299C23.1725 23.0299 22.8944 23.1448 22.6893 23.3499L18.7664 27.2733C18.3391 27.7006 18.3391 28.3931 18.7664 28.8199L25.683 35.7371ZM21.0863 28.0466L26.4563 33.4167L34.9137 24.9598L32.5374 22.5834L27.2301 27.8907C27.025 28.0958 26.7465 28.2111 26.4563 28.2111C26.1663 28.2111 25.8881 28.0958 25.683 27.8907L23.4626 25.6703L21.0863 28.0466Z" clip-rule="evenodd" fill="#79C8C7" fill-opacity="1.000000" fill-rule="evenodd"/>
</svg>
