<svg width="72.000000" height="72.000000" viewBox="0 0 72 72" fill="none" xmlns="http://www.w3.org/2000/svg" xmlns:xlink="http://www.w3.org/1999/xlink">
	<desc>
			Created with Pixso.
	</desc>
	<defs/>
	<circle id="Oval Copy 4" cx="44.000000" cy="44.000000" r="28.000000" fill="#2C6269" fill-opacity="1.000000"/>
	<path id="Combined Shape" d="M14.4957 0L28.4957 0C34.1565 0 38.7625 4.60602 38.7625 10.2666L38.7625 10.2667L38.7625 14.9333C40.8214 14.9333 42.4957 16.6078 42.4957 18.6667C42.4957 20.7255 40.8214 22.4 38.7625 22.4L38.5499 22.4C38.2612 26.0674 36.1975 29.2747 33.1624 31.101L33.1624 32.6667L36.1118 32.6667C38.6028 32.6667 40.629 34.6929 40.629 37.184L40.629 37.1842C40.6293 37.1998 40.6293 37.2154 40.6293 37.231C40.6293 37.2852 40.6283 37.3394 40.6263 37.3934L40.7476 37.4014C44.9636 37.9624 48.0957 41.5427 48.0958 45.7333L48.0958 56L46.2291 56L46.2291 45.7334C46.2291 42.4733 43.7932 39.6891 40.561 39.2579L40.1562 39.2322C40.0734 39.3986 39.9797 39.5605 39.8759 39.7172L35.0291 46.9512L35.0291 56L33.1624 56L33.1624 42.9565C31.5586 44.1448 29.6052 44.8 27.5625 44.8C25.5193 44.8 23.5662 44.1451 21.9624 42.9571L21.9624 56L20.0957 56L20.0957 46.9507L15.251 39.7197C15.1464 39.5623 15.0522 39.3996 14.9689 39.2326L14.5023 39.2634C11.3318 39.689 8.89575 42.4731 8.89575 45.7333L8.89575 56L7.02905 56L7.02905 45.7333C7.02905 41.5425 10.1614 37.9633 14.3165 37.407L14.4982 37.3945C14.496 37.3356 14.4948 37.2765 14.4948 37.2172C14.4948 37.203 14.4949 37.1888 14.495 37.1746C14.495 34.6929 16.5211 32.6666 19.0123 32.6666L21.9624 32.6666L21.9624 31.1315C19.2932 29.5509 17.3029 26.8625 16.72 23.577C16.6621 23.2502 16.6183 22.9208 16.5903 22.5904L16.5756 22.4L16.3624 22.4C14.3035 22.4 12.6292 20.7255 12.6292 18.6666C12.6292 16.6077 14.3035 14.9333 16.3624 14.9333L16.3639 14.9333L16.3625 10.5691C14.1571 9.5188 12.6292 7.26788 12.6292 4.66656C12.6292 4.15143 13.0472 3.73328 13.5625 3.73328L14.0636 3.73328C13.7445 3.18359 13.5625 2.54602 13.5625 1.86658L13.5625 0.933289C13.5625 0.418152 13.9806 0 14.4957 0ZM36.896 11.1999L35.1285 11.1999C35.4004 12.4564 36.1833 13.4161 36.897 14.0611L36.896 11.1999ZM33.2295 11.1999L21.8953 11.1999C21.4814 14.0394 19.2574 15.752 18.2291 16.4032L18.2291 19.6L18.4503 22.4401C18.4728 22.7071 18.5092 22.9796 18.5568 23.2502C19.4396 28.2213 24.2035 31.5467 29.1725 30.6647C33.3397 29.8583 36.4421 26.3238 36.7017 22.0715L36.8986 19.5272L36.8976 16.4045C35.8702 15.7542 33.6437 14.0413 33.2295 11.1999ZM19.9963 11.1999L19.1625 11.1999C18.8457 11.1999 18.5341 11.1772 18.2291 11.1334L18.2291 14.0597C18.9424 13.4148 19.7246 12.4555 19.9963 11.1999ZM14.5901 5.59998C15.0232 7.72699 16.9094 9.33331 19.1625 9.33331L19.1625 9.33344L36.8435 9.33344C36.3777 5.13898 32.8125 1.8667 28.4957 1.8667L15.4291 1.8667C15.4291 2.89624 16.2664 3.7334 17.2958 3.7334C17.8109 3.7334 18.229 4.15155 18.229 4.66669C18.229 5.18188 17.8109 5.59998 17.2958 5.59998L14.5901 5.59998ZM38.7625 16.8L38.7625 19.6L38.6912 20.5334L38.7625 20.5334C39.792 20.5334 40.6292 19.6961 40.6292 18.6667C40.6292 17.6371 39.7919 16.8 38.7625 16.8ZM31.2957 31.9999C30.7236 32.2126 30.1282 32.3806 29.5133 32.4996C28.8618 32.6152 28.2122 32.6722 27.5729 32.6722C26.2728 32.6722 25.0092 32.4416 23.8291 32.0135L23.8291 35.672L23.8292 35.6914C23.8292 36.8938 23.0616 37.9393 21.9624 38.3264L21.9624 40.4493C23.3934 42.0319 25.4163 42.9333 27.5625 42.9333C29.7086 42.9333 31.7314 42.0319 33.1624 40.4479L33.1624 38.3254C32.063 37.9386 31.2955 36.8932 31.2955 35.6854L31.2957 35.6636L31.2957 31.9999ZM16.4318 20.5333L16.3654 19.6718L16.3644 16.8L16.3624 16.8C15.333 16.8 14.4957 17.6371 14.4957 18.6666C14.4957 19.6961 15.333 20.5333 16.3624 20.5333L16.4318 20.5333ZM20.0957 17.7333C20.0957 16.7023 20.9315 15.8666 21.9624 15.8666C22.9934 15.8666 23.8291 16.7023 23.8291 17.7333C23.8291 18.7642 22.9934 19.6 21.9624 19.6C20.9315 19.6 20.0957 18.7642 20.0957 17.7333ZM31.2958 17.7333C31.2958 16.7023 32.1315 15.8666 33.1625 15.8666C34.1934 15.8666 35.0292 16.7023 35.0292 17.7333C35.0292 18.7642 34.1934 19.6 33.1625 19.6C32.1315 19.6 31.2958 18.7642 31.2958 17.7333ZM28.4286 17.1471L27.0743 20.5333L28.4958 20.5333L28.4958 22.4L25.6959 22.4C25.386 22.4 25.0966 22.246 24.923 21.9902C24.8168 21.8337 24.7622 21.6506 24.7622 21.4662C24.7622 21.3494 24.7842 21.2319 24.8287 21.1204L26.6954 16.4537L28.4286 17.1471ZM25.8545 24.2667C27.3076 24.2657 28.6741 23.7001 29.7026 22.6725L31.0223 23.9932C29.6418 25.3727 27.806 26.1324 25.8545 26.1334L25.6958 26.1334L25.6958 24.2667L25.8545 24.2667ZM21.9624 35.6785L21.9624 34.5333L19.0132 34.5333C17.5515 34.5333 16.3625 35.7223 16.3625 37.1837L16.3625 37.1838C16.3624 37.1934 16.3624 37.2029 16.3624 37.2124C16.3624 37.7434 16.5151 38.2492 16.804 38.6829L20.0957 43.5958L20.0957 37.5387C20.0957 37.0225 20.5139 36.6053 21.0291 36.6053L21.1877 36.6053C21.6338 36.5291 21.9625 36.1411 21.9625 35.6844L21.9624 35.6785ZM33.937 36.6053L34.0957 36.6053C34.6118 36.6053 35.0291 37.0224 35.0291 37.5385L35.0291 43.5972L38.3229 38.6811C38.6099 38.2493 38.7626 37.7445 38.7626 37.2215C38.7626 37.2122 38.7626 37.2028 38.7625 37.1934C38.7625 35.7234 37.5734 34.5334 36.1118 34.5334L33.1624 34.5334L33.1624 35.672L33.1624 35.6797C33.1624 36.142 33.4916 36.5291 33.937 36.6053ZM18.2291 46.6667C18.7443 46.6667 19.1625 47.0838 19.1625 47.6L19.1625 53.2C19.1625 53.7161 18.7443 54.1332 18.2291 54.1332C17.714 54.1332 17.2959 53.7161 17.2959 53.2L17.2959 47.6C17.2959 47.0838 17.714 46.6667 18.2291 46.6667ZM35.9624 47.6C35.9624 47.0838 36.3796 46.6667 36.8958 46.6667C37.4119 46.6667 37.8291 47.0837 37.8291 47.5998L37.8291 53.2C37.8291 53.7161 37.4119 54.1332 36.8958 54.1332C36.3796 54.1332 35.9624 53.7161 35.9624 53.2L35.9624 47.6Z" clip-rule="evenodd" fill="#79C8C7" fill-opacity="1.000000" fill-rule="evenodd"/>
</svg>
